<svg width="288" height="281" viewBox="0 0 288 281" fill="none" xmlns="http://www.w3.org/2000/svg">
<rect width="288" height="280.832" rx="140.416" fill="white"/>
<g clip-path="url(#clip0_1_5)">
<path d="M272 143.042C272 72.9098 214.697 16.0556 143.998 16.0556C73.3282 16.0556 16 72.9098 16 143.042C16 189.628 41.3724 230.225 79.0533 252.353L87.2589 197.919C75.0999 184.492 67.6372 166.792 67.6372 147.319C67.6372 105.48 101.834 71.5522 143.998 71.5522C186.191 71.5522 220.363 105.48 220.363 147.319C220.363 166.967 212.81 184.791 200.476 198.214L208.648 252.532C246.504 230.46 272 189.773 272 143.042Z" fill="#FF7A24"/>
<path d="M158.044 181.457L173.593 264.776H113.519L129.008 181.602C113.694 175.791 102.748 161.096 102.748 143.75C102.748 121.324 120.926 103.149 143.319 103.149C165.746 103.149 183.89 121.324 183.89 143.75C183.89 160.951 173.153 175.552 158.044 181.457Z" fill="#123467"/>
</g>
<defs>
<clipPath id="clip0_1_5">
<rect width="256" height="248.832" fill="white" transform="translate(16 16)"/>
</clipPath>
</defs>
</svg>
